<svg xmlns="http://www.w3.org/2000/svg" viewBox="0 0 55 55"><defs><style>.cls-1{fill:#ff2a06;}.cls-2{fill:#8a231c;}</style></defs><g id="Layer_2" data-name="Layer 2"><g id="mtl_logo" data-name="mtl logo"><circle id="bg" class="cls-1" cx="27.5" cy="27.5" r="27.5"/><path id="mtl" class="cls-2" d="M39.41,41.53a7.41,7.41,0,0,1-6.29,2.54V40.85A4.24,4.24,0,0,0,37.74,37a2.9,2.9,0,0,0,0-.51h0v-.2c0-.09,0-.18,0-.27v-.22h0V25.42h0v-3.1l-.58.92-1.86-3.41L36.54,18c2.87-4.49,6.25-3.93,9.47-4,0,.6,0,0,0,3.22a6.26,6.26,0,0,0-1.23.12C41.91,17.75,41,19.54,41,22.6v8.6h0v4.48h0v.36c0,3.18,1.83,4.81,4.65,4.81v3.22l-.63,0A7.31,7.31,0,0,1,39.41,41.53Zm-24.17,0A7.4,7.4,0,0,1,9,44.07V40.85c2.74,0,4.54-1.54,4.65-4.53h0v-.64h0V31.2h0V22.6c0-3.06-.88-4.85-3.74-5.29a8.54,8.54,0,0,0-1.23-.12c0-3.21,0-2.62,0-3.21,3.22.07,6.6-.48,9.46,4l1.21,1.86-1.86,3.4-.58-.93v13.5h0V36c0,.12,0,.24,0,.36v.1h0A4.25,4.25,0,0,0,21,40.86a4.35,4.35,0,0,0,.51,0v3.22l-.63,0a7.37,7.37,0,0,1-5.65-2.56ZM27.34,38h-.68L20.08,27.46,22,24l5.29,8.1L32.61,24l2,3.44L28,38ZM41.57,36V31.82a4.82,4.82,0,0,0,4,1.57v3.3l-.66,0A7.81,7.81,0,0,1,41.57,36Zm-32.5.74v-3.3a4.82,4.82,0,0,0,4-1.57V36a7.83,7.83,0,0,1-3.37.76c-.22,0-.43,0-.65,0Zm8.34-.58V24.45l.37-.68h0l1.88-3.42h0l2-3.6c.6-1.35,1.11-2.11-.24-2.11H20.19V11.42H21c1.2-.06,6-.24,6.31,1,.26-1.28,5.11-1.1,6.31-1h.83v3.22h-1.2c-1.35,0-.83.76-.23,2.11l2,3.6h0l1.88,3.42h0l.37.69V36.11a7,7,0,0,1-3.51.58V33.43a2.69,2.69,0,0,0,3-2.38,2.5,2.5,0,0,0-.11-1.12l-1.7-3h0l-2-3.43h0l-3.88-6.8a2.55,2.55,0,0,0-1.73-1,2.51,2.51,0,0,0-1.73,1l-3.88,6.8h0l-2,3.44v0l-1.7,3a2.71,2.71,0,0,0,2.86,3.5v3.26h-.6a6.56,6.56,0,0,1-2.92-.59Z"/></g></g></svg>