<svg xmlns="http://www.w3.org/2000/svg" width="1366" height="768" viewBox="0 0 1366 768">
  <defs>
    <style>
      .cls-1 {
        fill: #fab800;
        fill-rule: evenodd;
      }
    </style>
  </defs>
  <g id="Artboard_1" data-name="Artboard 1">
    <path id="twitter_1" data-name="twitter 1" class="cls-1" d="M666.277,237.443c-0.64-7.708-2.062-16.465-.127-24.351,6.753-27.528,35.321-52.977,72.038-41.092a58.443,58.443,0,0,1,17.787,9.766l5.209,4.946,6.733-1.522a112.778,112.778,0,0,0,21.6-7.99l6.988-3.8v0.127c-3.877,10.48-9.248,19.331-17.279,25.619l-6.861,4.819c11.922-2.036,22.244-4.266,31.636-8.624-0.882,3.107-4.358,5.965-6.226,8.371a90.672,90.672,0,0,1-15.627,15.726c-1.956,1.533-3.723,3.464-5.971,4.693a73.8,73.8,0,0,1-.254,17.882q-0.636,6.215-1.271,12.429c-2.452,12.227-5.038,23.443-9.147,33.736-18.423,46.146-50.738,79.145-99.99,94.486-8.787,2.737-18.2,3.844-28.205,5.58L624.858,389H612.026c-4.864-.787-9.426-0.185-13.976-1.015-5.711-1.041-11.386-1.671-16.771-3.043A184.572,184.572,0,0,1,552.312,374.8c-5.88-2.588-14.828-6.587-19.312-10.526v-0.127c25.594,2.522,49.327-2.6,65.558-12.048l11.689-7.1,4.828-3.551v-0.127c-20.313-.465-34.446-10.355-43.324-22.448-3.211-4.373-7.291-10.037-8.386-16.234,4.436,1.3,21.815,1.266,24.648-1.014-5.26-.29-10.838-3.119-14.611-5.327-12.3-7.2-20.541-15.914-26.045-29.931-1.029-2.62-4.9-15.8-3.3-19.785,6.977,3.277,14.511,6.888,24.648,6.976-0.042-.085-0.084-0.17-0.127-0.254-3.582-1.472-7.331-5.48-9.656-8.371-6.011-7.475-10.712-14.737-13.467-25.745-0.709-2.832-.5-5.545-1.016-8.751a33.862,33.862,0,0,1,.254-10.273,67.618,67.618,0,0,1,3.811-14.205l3.3-6.595,5.336,6.215a101.854,101.854,0,0,0,15.627,15.092c19.653,15.546,39.359,26.133,67.845,33.228A118.98,118.98,0,0,0,666.277,237.443Z"/>
  </g>
</svg>
